<svg xmlns="http://www.w3.org/2000/svg" xmlns:xlink="http://www.w3.org/1999/xlink" version="1.1" x="0px" y="0px" viewBox="0 0 64 80" enable-background="new 0 0 64 64" xml:space="preserve"><g display="none"><rect x="-484.995" y="-97.495" display="inline" fill="#000000" width="786.5" height="405.5"/></g><g display="none"><g display="inline"><g><path d="M0,43.333l0-38.75c0-0.688,0.588-1.25,1.306-1.25h61.388c0.718,0,1.306,0.562,1.306,1.25v38.75H0z"/></g><g><path fill="#000000" d="M64,43.333v5.333C64,49.4,63.412,50,62.694,50H1.306C0.588,50,0,49.4,0,48.667l0-5.333H64z"/></g><g><polygon fill="#000000" points="41.333,59.333 22.667,59.333 24,50 40,50    "/></g><g><rect x="18" y="59.333" fill="#000000" width="28" height="1.333"/></g><g opacity="0.2"><path fill="#000000" d="M28.328,3.333H1.306C0.588,3.333,0,3.896,0,4.583v22.432L28.328,3.333z"/></g><g><defs><polygon id="b" points="41.333,59.333 22.667,59.333 24,50 40,50     "/></defs><clipPath id="a"><use xlink:href="#b" overflow="visible"/></clipPath><g clip-path="url(#a)"><rect x="21.971" y="50" fill="#000000" width="20.058" height="3.15"/></g></g></g><g display="inline"><path fill="#000000" d="M43.218,35.013H20.783c-3.901,0-7.076-3.175-7.076-7.076c0-3.294,2.257-6.116,5.428-6.874    c-0.009-0.157-0.013-0.316-0.013-0.476c0-4.968,4.042-9.01,9.011-9.01c3.657,0,6.944,2.226,8.325,5.584    c0.444-0.112,0.895-0.169,1.345-0.169c2.438,0,4.552,1.571,5.27,3.868h0.146c3.901,0,7.075,3.175,7.075,7.076    S47.119,35.013,43.218,35.013z M28.132,12.577c-4.417,0-8.011,3.593-8.011,8.01c0,0.278,0.015,0.554,0.042,0.825l0.048,0.464    l-0.46,0.079c-2.923,0.507-5.045,3.022-5.045,5.981c0,3.351,2.726,6.076,6.076,6.076h22.436c3.35,0,6.075-2.726,6.075-6.076    s-2.726-6.076-6.075-6.076h-0.923l-0.091-0.385c-0.485-2.051-2.296-3.483-4.402-3.483c-0.497,0-0.996,0.085-1.483,0.254    l-0.471,0.163l-0.164-0.471C34.56,14.732,31.525,12.577,28.132,12.577z"/></g><g display="inline"><g><path fill="#000000" d="M20.719,26.04l6.872-3.54v1.022L21.8,26.425v0.029l5.792,2.903v1.022l-6.872-3.54V26.04z"/></g><g><path fill="#000000" d="M28.552,30.972l4.133-10.738h1.007l-4.147,10.738H28.552z"/></g><g><path fill="#000000" d="M41.496,26.854l-6.872,3.525v-1.022l5.835-2.903v-0.029l-5.835-2.903V22.5l6.872,3.525V26.854z"/></g></g></g><g display="none"><polygon display="inline" fill="#000000" points="22.625,59.45 40.875,59.45 39.889,49.958 24.112,49.958  "/><rect x="1.5" y="4.286" display="inline" fill="#000000" width="61" height="45.125"/><rect x="4" y="7.26" display="inline" width="56" height="32.707"/><path display="inline" d="M64,43.967H0V5.47c0-1.219,1.017-2.21,2.266-2.21h59.47C62.984,3.26,64,4.251,64,5.47V43.967z M2,41.967   h60V5.47c0-0.1-0.108-0.21-0.265-0.21H2.266C2.109,5.26,2,5.371,2,5.47V41.967z"/><path display="inline" d="M61.735,50.418H2.266C1.017,50.418,0,49.391,0,48.127v-6.16h64v6.16   C64,49.391,62.984,50.418,61.735,50.418z M2,43.967v4.16c0,0.158,0.122,0.291,0.266,0.291h59.47c0.144,0,0.265-0.133,0.265-0.291   v-4.16H2z"/><path display="inline" d="M42.195,59.45h-20.39l1.577-11.031h17.234L42.195,59.45z M24.112,57.45h15.776l-1.006-7.031H25.117   L24.112,57.45z"/><rect x="17.438" y="57.45" display="inline" width="29.125" height="3.29"/><path display="inline" fill="#000000" d="M44.82,21.065h-0.602c-0.599-2.533-2.87-4.421-5.587-4.421   c-0.66,0-1.291,0.117-1.882,0.322c-1.329-3.789-4.927-6.511-9.17-6.511c-5.371,0-9.725,4.354-9.725,9.725   c0,0.338,0.018,0.672,0.051,1.001c-3.53,0.611-6.24,3.7-6.24,7.398c0,4.133,3.382,7.515,7.515,7.515h25.64   c4.133,0,7.515-3.382,7.515-7.515C52.335,24.447,48.953,21.065,44.82,21.065z"/><g display="inline"><path fill="#000000" d="M20.719,26.696l6.872-3.54v1.022L21.8,27.081v0.029l5.792,2.903v1.022l-6.872-3.54V26.696z"/><path fill="#000000" d="M28.552,31.628l4.133-10.738h1.007l-4.147,10.738H28.552z"/><path fill="#000000" d="M41.496,27.51l-6.872,3.525v-1.022l5.835-2.903v-0.029l-5.835-2.903v-1.022l6.872,3.525V27.51z"/></g></g><g display="none"><polygon display="inline" fill="#000000" points="22.625,59.45 40.875,59.45 39.889,49.958 24.112,49.958  "/><rect x="1.5" y="4.286" display="inline" fill="#000000" width="61" height="45.125"/><rect x="4" y="7.26" display="inline" width="56" height="32.707"/><path display="inline" d="M64,43.967H0V5.47c0-1.219,1.017-2.21,2.266-2.21h59.47C62.984,3.26,64,4.251,64,5.47V43.967z M2,41.967   h60V5.47c0-0.1-0.108-0.21-0.265-0.21H2.266C2.109,5.26,2,5.371,2,5.47V41.967z"/><path display="inline" d="M61.735,50.418H2.266C1.017,50.418,0,49.391,0,48.127v-6.16h64v6.16   C64,49.391,62.984,50.418,61.735,50.418z M2,43.967v4.16c0,0.158,0.122,0.291,0.266,0.291h59.47c0.144,0,0.265-0.133,0.265-0.291   v-4.16H2z"/><path display="inline" d="M42.195,59.45h-20.39l1.577-11.031h17.234L42.195,59.45z M24.112,57.45h15.776l-1.006-7.031H25.117   L24.112,57.45z"/><rect x="17.438" y="57.45" display="inline" width="29.125" height="3.29"/><path display="inline" fill="#000000" stroke="#FFFFFF" stroke-miterlimit="10" d="M44.82,21.065h-0.602   c-0.599-2.533-2.87-4.421-5.587-4.421c-0.66,0-1.291,0.117-1.882,0.322c-1.329-3.789-4.927-6.511-9.17-6.511   c-5.371,0-9.725,4.354-9.725,9.725c0,0.338,0.018,0.672,0.051,1.001c-3.53,0.611-6.24,3.7-6.24,7.398   c0,4.133,3.382,7.515,7.515,7.515h25.64c4.133,0,7.515-3.382,7.515-7.515C52.335,24.447,48.953,21.065,44.82,21.065z"/><g display="inline"><path fill="#000000" d="M20.719,26.696l6.872-3.54v1.022L21.8,27.081v0.029l5.792,2.903v1.022l-6.872-3.54V26.696z"/><path fill="#000000" d="M28.552,31.628l4.133-10.738h1.007l-4.147,10.738H28.552z"/><path fill="#000000" d="M41.496,27.51l-6.872,3.525v-1.022l5.835-2.903v-0.029l-5.835-2.903v-1.022l6.872,3.525V27.51z"/></g></g><g><g><path d="M2.266,50.418h20.831l-1.005,7.031h-4.654v3.29h29.125v-3.29h-4.653l-1.006-7.031h20.832c1.249,0,2.265-1.027,2.265-2.291    v-4.16v-2V5.47c0-1.219-1.016-2.21-2.265-2.21H2.266C1.017,3.26,0,4.251,0,5.47v36.497v2v4.16C0,49.391,1.017,50.418,2.266,50.418    z M24.112,57.45l1.005-7.031h13.766l1.006,7.031H24.112z M2,5.47c0-0.1,0.109-0.21,0.266-0.21h59.47C61.892,5.26,62,5.371,62,5.47    v36.497H2V5.47z M2,43.967h60v4.16c0,0.158-0.121,0.291-0.265,0.291H40.617H23.383H2.266C2.122,48.418,2,48.286,2,48.127V43.967z"/><path d="M44.82,20.316h-0.036c-0.881-2.631-3.331-4.421-6.152-4.421c-0.48,0-0.96,0.055-1.432,0.162    c-1.64-3.826-5.421-6.352-9.62-6.352c-5.776,0-10.476,4.699-10.476,10.476c0,0.136,0.003,0.271,0.008,0.406    c-3.629,0.935-6.196,4.194-6.196,7.993c0,4.558,3.707,8.266,8.265,8.266h25.64c4.558,0,8.266-3.708,8.266-8.266    S49.377,20.316,44.82,20.316z M44.82,35.346H19.18c-3.73,0-6.765-3.035-6.765-6.766c0-3.296,2.362-6.096,5.618-6.658l0.69-0.119    l-0.072-0.697c-0.031-0.305-0.048-0.613-0.048-0.925c0-4.949,4.026-8.976,8.976-8.976c3.801,0,7.201,2.415,8.462,6.009    l0.248,0.706l0.706-0.246c0.534-0.186,1.084-0.279,1.636-0.279c2.324,0,4.321,1.58,4.857,3.844l0.137,0.577h1.194    c3.73,0,6.766,3.034,6.766,6.765S48.55,35.346,44.82,35.346z"/><polygon points="20.594,26.619 20.594,27.572 27.716,31.241 27.716,29.936 22.049,27.095 27.647,24.289 27.716,24.255     27.716,22.951 20.661,26.584   "/><polygon points="28.37,31.753 29.63,31.753 33.808,20.935 33.874,20.765 32.599,20.765   "/><polygon points="34.498,22.951 34.498,24.255 40.207,27.095 34.568,29.901 34.498,29.936 34.498,31.241 41.62,27.586     41.62,26.605 34.68,23.044   "/></g></g><text x="0" y="79" fill="#000000" font-size="5px" font-weight="bold" font-family="'Helvetica Neue', Helvetica, Arial-Unicode, Arial, Sans-serif">Created by Alfredo @ IconsAlfredo.com</text><text x="0" y="84" fill="#000000" font-size="5px" font-weight="bold" font-family="'Helvetica Neue', Helvetica, Arial-Unicode, Arial, Sans-serif">from the Noun Project</text></svg>